# xmcd CD database file
#
# Track frame offsets:
#	150
#	9150
#	35389
#	36979
#	59633
#	82238
#	101980
#	122087
#	145194
#	160813
#	177353
#	199642
#
# Disc length: 2762 seconds
#
# Revision: 0
# Processed by: cddbd v1.5.1PL2 Copyright (c) Steve Scherf et al.
# Submitted via: CDex 1.51
#
DISCID=a50ac80c
DTITLE=Enigma - Le Roi Est Mort, Vive Le Roi
DYEAR=1900
DGENRE=New Age
TTITLE0=Le Roi Est Mort, Vive Le Roi
TTITLE1=Morphing Thru Time
TTITLE2=Third of its Kind
TTITLE3=Beyond the Invisible
TTITLE4=Why...
TTITLE5=Shadows in Silence
TTITLE6=The Child in Us
TTITLE7=TNT for the Brain
TTITLE8=Almost Full Moon
TTITLE9=The Roundabout
TTITLE10=Prism of Life
TTITLE11=Odyssey of the Mind
EXTD=
EXTT0=
EXTT1=
EXTT2=
EXTT3=
EXTT4=
EXTT5=
EXTT6=
EXTT7=
EXTT8=
EXTT9=
EXTT10=
EXTT11=
PLAYORDER=
